<svg version="1.2" xmlns="http://www.w3.org/2000/svg" viewBox="0 0 2880 1920" width="2880" height="1920">
	<title>kopi2(1)</title>
	<style>
		.s0 { fill: #000000 } 
	</style>
	<path id="Color Fill 2" fill-rule="evenodd" class="s0" d="m172.5 321.5l5.3 2.8c3.8 1.9 6.6 2.7 10.4 2.7 3 0 13.1 1.9 23.3 4.5 10.7 2.7 22.5 5 29 5.6 6.1 0.6 33.1 1.4 60 2 27 0.5 51.5 1.1 54.5 1.5 3 0.3 7.1 1.2 9 1.9 1.9 0.8 8.8 2.3 15.3 3.5 9.2 1.6 16.1 2 31.9 2 13 0 21.7-0.4 24.3-1.2 2.5-0.8 11.4-1.2 24.5-1.3 19.2 0 21.1 0.2 30.5 2.7 5.5 1.5 18.5 4.6 29 6.8 10.5 2.2 20.4 4 22 4 1.6 0 4.8 0.6 7 1.4 2.2 0.7 8.7 2.1 14.5 3.1 5.8 1 13 2.7 16 3.8 3 1.1 11.4 2.8 18.5 3.8 10.7 1.5 20 1.8 53.3 1.9 29.3 0 40.8-0.3 42.5-1.2 1.2-0.7 6.5-1.5 11.7-2 5.2-0.4 12.4-1 16-1.3 3.6-0.4 7.4-1 8.5-1.5 1.1-0.5 3.8-1.2 6-1.5 2.2-0.4 38.9-1 81.5-1.5 42.6-0.5 79.3-1.2 81.5-1.6 2.2-0.3 33.7-1 70-1.5 36.3-0.5 129.9-1.1 208-1.4 123.3-0.5 143.4-0.3 152.8 1 9.4 1.3 52.7 1.5 352.9 1.5 188.3 0 532.3 0.3 1186.7 1.5l1.1 2.3c0.5 1.2 1 3 1 4 0 0.9 1 2.8 4.4 6.7l-0.7 61c-0.5 46.1-1 63.1-2.1 69.5-0.8 4.7-2.4 12.1-3.5 16.5-1.2 4.4-2.6 13-3.1 19-0.5 6-1 17.3-1 25 0 9.5-0.5 15.6-1.5 19-1.1 3.7-1.5 10-1.5 25 0 14.3 0.5 21.9 1.6 26.5 0.8 3.6 1.9 10.8 2.3 16 0.5 5.2 1.6 12.8 2.5 16.8 1.3 5.8 1.6 14 1.6 42.5 0.1 32.1 0.2 35.3 1.8 36.4 1.4 0.9 1.8 3 1.9 10.2 0.3 7.3 0.6 9.1 1.8 9.1 0.8 0 1.5 0.1 1.5 0.3 0 0.1 0.6 1.8 2.8 7.2l-50.1-0.6c-27.6-0.4-97-0.6-154.2-0.7-57.2 0-117.5 0.3-134 0.7-26.7 0.7-30.9 1.1-38 3.1-4.4 1.2-10.3 2.7-13 3.3-3 0.6-29.7 1.1-66 1.4-52.8 0.3-61.6 0.1-65.5-1.2-3.9-1.3-17-1.5-102-1.5-83.6 0-98.9 0.2-107 1.6-5.2 0.8-14 2.2-19.5 2.9-6 0.9-18.9 1.4-32.5 1.4-12.4 0-25.7-0.4-29.5-1-3.8-0.5-9.9-1.3-13.5-1.8-3.6-0.4-8.1-1.6-10-2.6-3.3-1.7-10.2-1.8-158.5-1.2-140.1 0.6-155.6 0.5-161.5-1-3.6-0.9-7-2-7.5-2.5-0.5-0.4-3-0.8-5.5-0.8-2.5 0-9-1.1-24.5-5h-70c-67.6 0-70.2 0.1-76.5 2.1-4.7 1.4-11.4 2.3-24.5 3-10.2 0.5-41 0.7-71 0.4-29.2-0.3-118.5-0.7-198.5-1-94-0.3-145.7-0.1-146 0.5-0.3 0.6-29.1 1.3-76.8 1.7-59.9 0.6-76.2 1.1-76.2 2.1 0 0.9-77.4 1.2-767 1.2v-3.2c0-1.8-0.5-3.9-1.2-4.6-1-1-30.5-1.2-290.3-1.1l2.1-2.3c1.2-1.3 2.4-2.8 2.7-3.3 0.3-0.5 1.1-3.4 1.6-6.2 0.6-2.9 2-6.5 3.1-8 1.2-1.6 2.1-3.6 2-4.5 0-1 1.1-2.5 2.5-3.3 1.4-0.8 2.5-2.1 2.5-2.7 0.1-0.7 1.5-3.3 3.3-5.8 1.8-2.5 3.9-6.1 4.8-8 0.9-1.9 2.6-6.9 3.9-11 1.2-4.1 3.3-9.7 4.6-12.5 1.4-2.7 3.1-7.5 3.9-10.5 0.9-3 2.4-8.9 3.4-13 1-4.1 2.9-12 4.2-17.5 1.9-8.2 2.5-14.3 3.1-33.5 0.4-12.9 1.1-30.5 1.7-39 0.5-8.5 1.4-17.3 2-19.5 0.5-2.2 1.9-8.7 3-14.5 1.1-5.8 2.7-16.1 3.6-23 0.8-6.9 2.3-16.3 3.2-21 1.2-6.2 1.8-17 2.3-40.5 0.4-17.6 1.2-35.1 1.9-39 0.7-3.9 2.1-9.7 3.2-13 1.2-3.3 2.7-8.7 3.5-12 0.7-3.3 2-7.7 2.9-9.7 0.8-2.1 2.4-10.2 3.5-18 1.2-7.9 3.4-21 5-29.3 1.7-8.2 4-17.1 7.5-24.6h48c26.4 0 56.3-0.4 66.5-0.9 14.6-0.7 19.5-1.3 23.5-2.9 4.6-1.8 7.1-1.9 54-1.6zm-327.8 450.5c28.9 0 44.3 0.3 44.3 1 0 0.5-1 1.4-2.3 1.9-1.3 0.6-18.3 0.7-41.2 0.4-28.7-0.5-39.8-1-42-1.9-2.5-1.1 4-1.3 41.2-1.4z"/>
</svg>